<svg width="20" height="20" viewBox="0 0 20 20" fill="none" xmlns="http://www.w3.org/2000/svg">
<path fill-rule="evenodd" clip-rule="evenodd" d="M18.7137 2.70052C19.1042 2.30999 19.1042 1.67683 18.7137 1.2863C18.3232 0.895777 17.69 0.895777 17.2995 1.2863L10 8.58578L2.70051 1.2863C2.30999 0.895777 1.67683 0.895777 1.2863 1.2863C0.895777 1.67683 0.895777 2.30999 1.2863 2.70052L8.58578 10L1.2863 17.2995C0.895777 17.69 0.895777 18.3232 1.2863 18.7137C1.67683 19.1042 2.30999 19.1042 2.70051 18.7137L10 11.4142L17.2995 18.7137C17.69 19.1042 18.3232 19.1042 18.7137 18.7137C19.1042 18.3232 19.1042 17.69 18.7137 17.2995L11.4142 10L18.7137 2.70052Z" fill="url(#paint0_linear)"/>
<defs>
<linearGradient id="paint0_linear" x1="10" y1="0.993408" x2="10" y2="19.0066" gradientUnits="userSpaceOnUse">
<stop stop-color="#9B32B4"/>
<stop offset="0.53125" stop-color="#BE348F"/>
<stop offset="1" stop-color="#DD356F"/>
</linearGradient>
</defs>
</svg>
