<svg id="Слой_1" data-name="Слой 1" xmlns="http://www.w3.org/2000/svg" xmlns:xlink="http://www.w3.org/1999/xlink" viewBox="0 0 215.75 44.75"><defs><style>.cls-1{fill:#2b2e30;}.cls-2{fill:url(#Безымянный_градиент_30);}</style><linearGradient id="Безымянный_градиент_30" x1="113.31" y1="45.2" x2="123.6" y2="-0.47" gradientUnits="userSpaceOnUse"><stop offset="0" stop-color="#d16255"/><stop offset="1" stop-color="#ffde00"/></linearGradient></defs><title>Монтажная область 4</title><path class="cls-1" d="M3.13.86H6.55c1.5,0,2,.54,2,2V41.42c0,1.5-.54,2-2,2H3.13c-1.56,0-2.1-.54-2.1-2V2.9C1,1.4,1.57.86,3.13.86Z"/><path class="cls-1" d="M31.21,11.48c8.52,0,12.48,4.44,12.48,12.06V41.6c0,1.38-.48,1.86-1.86,1.86h-3.3c-1.38,0-1.8-.48-1.8-1.86V23.72c0-4-2.16-5.88-6.54-5.88a21.53,21.53,0,0,0-5.76.78.62.62,0,0,0-.42.6V41.6c0,1.38-.42,1.86-1.8,1.86h-3.3C17.53,43.46,17,43,17,41.6V16.94c0-1.92.42-2.64,2.34-3.42A30.69,30.69,0,0,1,31.21,11.48Z"/><path class="cls-1" d="M62.71,11.48c7,0,10.92,2.52,12.84,6.42.72,1.38.36,2.1-1,2.7l-2.7,1.08c-1.32.6-1.74.42-2.52-.84-1-1.8-2.64-3.12-6.48-3.12S57.25,18.8,57.25,21c0,2.82,2.4,3.3,7,3.72,7.14.72,12.24,2.34,12.24,9.66,0,5.88-4.44,10-13,10-7.08,0-11.58-2.58-13.38-7.26-.48-1.26-.18-2,1.2-2.52l2.7-.84c1.2-.42,1.86-.24,2.46,1.14,1,2.34,3.12,3.3,6.78,3.3,4.26,0,6.36-1.2,6.36-3.54,0-2.82-2.34-3.36-7.2-3.84-5.88-.6-12.12-1.86-12.12-9.66C50.35,15.44,54.43,11.48,62.71,11.48Z"/><path class="cls-1" d="M92.95,7v5.4h6.84c1.38,0,1.86.42,1.86,1.8v2.76c0,1.38-.48,1.86-1.86,1.86H92.95V30.86c0,5.88,1.74,6.9,6.78,6.9,1.44,0,1.92.42,1.92,1.86v2.76c0,1.44-.48,1.86-1.92,1.92C89.83,44.6,86,41.48,86,31.1V18.8H81.85c-1.38,0-1.8-.48-1.8-1.86V14.18c0-1.38.42-1.8,1.8-1.8H86V7c0-1.38.48-1.8,1.86-1.8h3.24C92.47,5.18,92.95,5.6,92.95,7Z"/><path class="cls-1" d="M168.34,11.48c8.16,0,11.76,4.38,11.76,11.94V41.6c0,1.38-.42,1.86-1.8,1.86H175c-1.38,0-1.86-.48-1.86-1.86V23.66c0-3.84-1.92-5.82-5.82-5.82a17.64,17.64,0,0,0-5.82,1.08,12.91,12.91,0,0,1,.66,4.5V41.6c0,1.38-.48,1.86-1.86,1.86h-3.24c-1.38,0-1.86-.48-1.86-1.86V23.66c0-3.84-2-5.82-5.88-5.82a14.94,14.94,0,0,0-4.8.72.67.67,0,0,0-.48.72V41.6c0,1.38-.42,1.86-1.8,1.86h-3.3c-1.38,0-1.86-.48-1.86-1.86V16.94c0-1.92.48-2.64,2.34-3.42a27.09,27.09,0,0,1,10.92-2,12.32,12.32,0,0,1,7.44,2A26.88,26.88,0,0,1,168.34,11.48Z"/><path class="cls-1" d="M200.86,11.48c9.54,0,13.86,5.52,13.86,12.42v3.66c0,1.56-.6,2.58-2.7,2.58H193.9v2.22c0,3.9,2.46,6,6.84,6,3.54,0,5.82-1.2,7.08-3.18,1-1.32,1.62-1.5,3.06-.72L213,35.6c1.38.66,1.56,1.68.72,3-2.16,3.54-6.18,5.76-13,5.76-9.84,0-13.8-5.46-13.8-12.84V24.44C186.94,16.1,191.8,11.48,200.86,11.48Zm0,5.88c-4.5,0-7,2.22-7,6.12V24.8h13.86V23.48C207.76,19.58,205.42,17.36,200.86,17.36Z"/><path class="cls-2" d="M130.61,17.67H119.4V.89A.5.5,0,0,0,119,.41h-.12a.5.5,0,0,0-.45.28L106.09,25.28a.5.5,0,0,0,.45.72H118V43.56a.5.5,0,0,0,.39.49h.11a.5.5,0,0,0,.45-.28L131,18.42a.5.5,0,0,0-.43-.75ZM106.54,25.5h0Z"/></svg>