<svg width="55" height="55" viewBox="0 0 55 55" fill="none" xmlns="http://www.w3.org/2000/svg">
<path d="M7.5 45.5L8.5 55H47V50.5L45.5 42L43 39L39.5 37V35L36.5 33H32.5L31 30L34.5 28L37.5 22L38.5 20H41V16.5L39.5 15.5L37.5 14L36.5 6.5L34.5 3L31 1.5L25 0.5L17 1.5H14.5L16 4.5H14.5V7.5L17 10.5V15.5L13.5 16.5L14.5 20L19 22V27L23 31L21.5 34H17L14.5 37L13.5 39L9.5 40.5L7.5 45.5Z" fill="#F9F5FC"/>
<g clip-path="url(#clip0)">
<path d="M28.4166 0H14.6666C14.1607 0 13.75 0.410674 13.75 0.916631V1.83326C13.75 2.50057 13.9288 3.12673 14.2422 3.66663H13.75C13.244 3.66663 12.8334 4.0773 12.8334 4.58326C12.8334 8.12163 15.7117 10.9999 19.25 10.9999H37.5834C38.0903 10.9999 38.5 10.5892 38.5 10.0833C38.5 4.52375 33.9763 0 28.4166 0ZM19.25 9.16663C17.0372 9.16663 15.1846 7.58903 14.7592 5.5H17.4166C17.9226 5.5 18.3333 5.08933 18.3333 4.58337C18.3333 4.07741 17.9226 3.66674 17.4166 3.66674C16.4056 3.66674 15.5833 2.84453 15.5833 1.83337H28.4166C32.6563 1.83337 36.1579 5.04722 36.6153 9.16674H19.25V9.16663Z" fill="#8F32C1"/>
<path d="M20.1667 10.0834C20.1667 13.1231 17.0353 14.7483 17.0042 14.7648L17.3213 15.3941L17.8264 16.4037C17.9968 16.3176 21.9999 14.2679 21.9999 10.0834H20.1667Z" fill="#8F32C1"/>
<path d="M34.8334 10.0834H33C33 14.268 37.0031 16.3176 37.1736 16.4037L37.9958 14.7647C37.9637 14.7483 34.8334 13.123 34.8334 10.0834Z" fill="#8F32C1"/>
<path d="M22 19.25C23.0125 19.25 23.8334 18.4292 23.8334 17.4166C23.8334 16.4041 23.0125 15.5833 22 15.5833C20.9875 15.5833 20.1666 16.4041 20.1666 17.4166C20.1666 18.4292 20.9875 19.25 22 19.25Z" fill="#8F32C1"/>
<path d="M33 19.25C34.0125 19.25 34.8334 18.4292 34.8334 17.4166C34.8334 16.4041 34.0125 15.5833 33 15.5833C31.9875 15.5833 31.1666 16.4041 31.1666 17.4166C31.1666 18.4292 31.9875 19.25 33 19.25Z" fill="#8F32C1"/>
<path d="M27.0205 20.1666L28.3506 16.841L26.6484 16.1599L24.815 20.7433C24.7023 21.0256 24.7372 21.3465 24.9076 21.5976C25.0781 21.8488 25.3624 22 25.6667 22H28.4167V20.1666H27.0205Z" fill="#8F32C1"/>
<path d="M29.6019 22.2677C28.5917 23.2769 27.2497 23.8324 25.8225 23.8334H25.6666V25.6667H25.8225C27.7392 25.6658 29.5423 24.9196 30.8981 23.5648L29.6019 22.2677Z" fill="#8F32C1"/>
<path d="M38.5 14.6666H37.5834V16.5H38.5C39.5111 16.5 40.3334 17.3222 40.3334 18.3334C40.3334 19.3444 39.5112 20.1667 38.5 20.1667H37.5834V22H38.5C40.5222 22 42.1666 20.3555 42.1666 18.3334C42.1666 16.3113 40.5222 14.6666 38.5 14.6666Z" fill="#8F32C1"/>
<path d="M16.5 16.5H17.4166V14.6666H16.5C14.4778 14.6666 12.8334 16.3111 12.8334 18.3333C12.8334 20.3554 14.4778 22 16.5 22H17.4166V20.1666H16.5C15.489 20.1666 14.6666 19.3444 14.6666 18.3333C14.6666 17.3222 15.489 16.5 16.5 16.5Z" fill="#8F32C1"/>
<path d="M36.6666 10.0834L36.6694 19.1786L36.476 21.6774C36.2212 25.8538 33.1741 29.3252 29.0812 30.1171C24.201 30.9834 19.5222 27.7173 18.6551 22.8351C18.6084 22.5692 18.5726 22.3016 18.5506 22.0394L18.3334 19.25V10.0834H16.5L16.5028 19.3206L16.7238 22.187C16.7513 22.5115 16.7943 22.8351 16.8512 23.156C17.7807 28.3957 22.3548 32.0889 27.5102 32.0889C28.1381 32.0889 28.7762 32.0329 29.416 31.9192C34.3449 30.9659 38.0006 26.8006 38.3049 21.8047L38.5 19.25V10.0834H36.6666Z" fill="#8F32C1"/>
<path d="M22 30.25V35.0414C22.0028 35.4924 21.6791 35.8765 21.2391 35.9517H21.0833C20.5773 35.9517 20.1666 36.3614 20.1666 36.8684V55H22V37.642C23.0854 37.2598 23.8415 36.2239 23.8334 35.035V30.25H22Z" fill="#8F32C1"/>
<path d="M15.5228 36.6685L14.4906 36.739C10.4096 37.2854 7.33325 40.8008 7.33325 44.9166V55H9.16662V44.9166C9.16662 41.7147 11.5591 38.9803 14.6731 38.5623L15.6447 38.4982L15.5228 36.6685Z" fill="#8F32C1"/>
<path d="M33.2108 39.4817C31.7974 41.1885 29.7155 42.1666 27.4999 42.1666C25.2844 42.1666 23.2026 41.1885 21.7891 39.4835L20.3774 40.6523C22.1402 42.7799 24.7362 44 27.4999 44C30.2627 44 32.8588 42.7799 34.6215 40.6523L33.2108 39.4817Z" fill="#8F32C1"/>
<path d="M19.1033 33.9166H22.9167V32.0833H19.1025C16.6558 32.0833 14.6658 34.0733 14.6658 36.5108C14.6576 37.4027 14.9133 38.2653 15.4083 39.0105L20.3217 46.3438L21.8452 45.3227L16.9336 37.9921C16.6449 37.5585 16.4946 37.0516 16.5001 36.5199C16.5 35.0845 17.6677 33.9166 19.1033 33.9166Z" fill="#8F32C1"/>
<path d="M18.3334 45.8334C17.8274 45.8334 17.4167 46.2431 17.4167 46.75V52.25C17.4167 52.7569 17.8274 53.1666 18.3334 53.1666C18.8393 53.1666 19.25 52.7569 19.25 52.25V46.75C19.25 46.2431 18.8393 45.8334 18.3334 45.8334Z" fill="#8F32C1"/>
<path d="M33.9166 35.9516H33.7607C33.3207 35.8764 32.9962 35.4924 32.9998 35.035V30.25H31.1665V35.0267C31.1573 36.2221 31.9136 37.2588 32.9998 37.6411V55H34.8332V36.8684C34.8333 36.3614 34.4235 35.9516 33.9166 35.9516Z" fill="#8F32C1"/>
<path d="M40.4498 36.7336L39.4781 36.6694L39.3562 38.4991L40.2665 38.5569C43.4409 38.9804 45.8334 41.7148 45.8334 44.9167V55H47.6668V44.9166C47.6667 40.8009 44.5904 37.2845 40.4498 36.7336Z" fill="#8F32C1"/>
<path d="M35.8966 32.0834H32.0833V33.9167H35.8966C37.3321 33.9167 38.5 35.0855 38.5 36.5292C38.5055 37.0527 38.3552 37.5587 38.0683 37.9904L33.1549 45.3238L34.6784 46.3441L39.5936 39.008C40.0858 38.2655 40.3425 37.402 40.3333 36.5202C40.3334 34.0735 38.3433 32.0834 35.8966 32.0834Z" fill="#8F32C1"/>
<path d="M36.6666 45.8334C36.1597 45.8334 35.75 46.2431 35.75 46.75V52.25C35.75 52.7569 36.1597 53.1666 36.6666 53.1666C37.1736 53.1666 37.5833 52.7569 37.5833 52.25V46.75C37.5834 46.2431 37.1736 45.8334 36.6666 45.8334Z" fill="#8F32C1"/>
</g>
<defs>
<clipPath id="clip0">
<rect width="55" height="55" fill="white"/>
</clipPath>
</defs>
</svg>
