<svg width="55" height="55" viewBox="0 0 55 55" fill="none" xmlns="http://www.w3.org/2000/svg">
<path d="M18.0001 1L17.8182 1.22728L21 3.5H26.5H32L34 5L36 6.5L38 8V13V16L40 18V20.5L38 22L35 29L33 32L34 36.5L38 37.5H41.5L45 40.5L47 45.5V55H8V48.5C8 48.1 8.66667 43.6667 9 41.5L11 39.5L17.5001 37.5L22 36.5V33.5L19 28.5L17.5001 22.5C17.0001 22 15.8001 20.9 15.0001 20.5C14.2001 20.1 14.6667 19.3333 15.0001 19L16.0001 17L17.5001 15.5V13L16.5001 10.5L16.0001 7V3.5L17.8182 1.22728L17.5001 1H18.0001Z" fill="#F9F5FC"/>
<g clip-path="url(#clip0)">
<path d="M37.5681 15.5598H36.6528V17.3904H37.5681C38.5776 17.3904 39.3986 18.2114 39.3986 19.221C39.3986 20.2305 38.5776 21.0515 37.5681 21.0515H36.6528V22.8821H37.5681C39.5872 22.8821 41.2292 21.24 41.2292 19.221C41.2292 17.2019 39.5872 15.5598 37.5681 15.5598Z" fill="#8F32C1"/>
<path d="M17.4321 17.3904H18.3474V15.5598H17.4321C15.413 15.5598 13.771 17.2019 13.771 19.221C13.771 21.24 15.413 22.8821 17.4321 22.8821H18.3474V21.0515H17.4321C16.4226 21.0515 15.6016 20.2305 15.6016 19.221C15.6017 18.2114 16.4226 17.3904 17.4321 17.3904Z" fill="#8F32C1"/>
<path d="M26.8823 22.8821L28.3806 17.6422L26.6205 17.1388L24.79 23.5457C24.7104 23.8221 24.7661 24.1187 24.9392 24.3484C25.1121 24.5782 25.3822 24.7126 25.6695 24.7126H28.4145V22.8821H26.8823Z" fill="#8F32C1"/>
<path d="M38.3289 15.9672L34.6678 10.4756C34.4975 10.2211 34.212 10.0682 33.9062 10.0682H17.4313C16.9261 10.0682 16.5161 10.4783 16.5161 10.9835V21.6931C16.5171 24.4224 17.2181 27.1271 18.5443 29.5131C20.3502 32.7633 23.7806 34.7805 27.4966 34.7805C27.4985 34.7805 27.5003 34.7805 27.5021 34.7805C31.219 34.7805 34.6495 32.7624 36.4544 29.5131C37.7798 27.1261 38.4818 24.4215 38.4826 21.6921V16.4751C38.4826 16.2938 38.4287 16.1172 38.3289 15.9672ZM36.6522 21.6912C36.6513 24.1112 36.0298 26.5083 34.8546 28.6244C33.3718 31.2925 30.5546 32.95 27.5012 32.95C27.5012 32.95 27.5004 32.95 27.4994 32.95C27.4994 32.95 27.4986 32.95 27.4976 32.95C24.4451 32.95 21.628 31.2933 20.1452 28.6244C18.97 26.5092 18.3485 24.1121 18.3476 21.6921V11.8987H33.4167L36.6523 16.7515V21.6912H36.6522Z" fill="#8F32C1"/>
<path d="M30.514 24.9799C29.5055 25.9876 28.1655 26.5422 26.7403 26.5432H25.6694V28.3737H26.7403C28.6541 28.3728 30.4536 27.6278 31.8083 26.275L30.514 24.9799Z" fill="#8F32C1"/>
<path d="M22.012 20.1362C23.023 20.1362 23.8425 19.3167 23.8425 18.3057C23.8425 17.2947 23.023 16.4751 22.012 16.4751C21.001 16.4751 20.1814 17.2947 20.1814 18.3057C20.1814 19.3167 21.001 20.1362 22.012 20.1362Z" fill="#8F32C1"/>
<path d="M32.9954 20.1362C34.0064 20.1362 34.8259 19.3167 34.8259 18.3057C34.8259 17.2947 34.0064 16.4751 32.9954 16.4751C31.9844 16.4751 31.1648 17.2947 31.1648 18.3057C31.1648 19.3167 31.9844 20.1362 32.9954 20.1362Z" fill="#8F32C1"/>
<path d="M38.7295 7.50001C37.9872 6.45845 36.8843 5.76827 35.6221 5.55687C35.5654 5.54774 35.5105 5.53946 35.4537 5.53216C34.6391 3.84532 32.9266 2.7479 31.0146 2.74608H20.6675L19.1078 0.407512C18.9559 0.179564 18.7097 0.0313222 18.437 0.00478907C18.1642 -0.0235702 17.8933 0.0752575 17.6993 0.268401L16.7841 1.18363C13.9037 4.06306 13.9037 8.74932 16.7841 11.6306L18.0773 10.3345C17.0285 9.28568 16.4509 7.8907 16.4509 6.40614C16.4509 4.92243 17.0293 3.52671 18.0782 2.47774L18.2045 2.35238L19.4163 4.1692C19.5866 4.42368 19.8721 4.57654 20.1778 4.57654H31.0129C32.3483 4.57836 33.5299 5.43054 33.9546 6.69725C34.0782 7.07065 34.4288 7.32234 34.8223 7.32234C34.8233 7.32234 34.8233 7.32234 34.8241 7.32234C34.977 7.31503 35.1564 7.33609 35.3184 7.36348C36.0973 7.49432 36.7782 7.92089 37.2368 8.56338C37.6954 9.20586 37.8756 9.9894 37.7448 10.7692L36.6648 17.2401L38.4706 17.5412L39.5516 11.0703C39.7638 9.80925 39.4718 8.54157 38.7295 7.50001Z" fill="#8F32C1"/>
<path d="M21.0931 32.0348V35.8094L14.5104 36.6834C10.4356 37.2289 7.36401 40.739 7.36401 44.8486V54.9166H9.19458V44.8477C9.19458 41.6506 11.5844 38.9212 14.7521 38.4975L22.1292 37.5181C22.5841 37.4577 22.9237 37.0696 22.9237 36.611V32.0347H21.0931V32.0348Z" fill="#8F32C1"/>
<path d="M40.4887 36.6845L33.907 35.8105V32.0359H32.0764V36.6123C32.0764 37.0708 32.416 37.4588 32.8709 37.5193L40.2471 38.4987C43.4167 38.9215 45.8055 41.6518 45.8055 44.8489V54.9169H47.6361V44.8498C47.6361 40.7401 44.5635 37.2292 40.4887 36.6845Z" fill="#8F32C1"/>
<path d="M16.5205 47.5944H14.6899V54.9165H16.5205V47.5944Z" fill="#8F32C1"/>
<path d="M40.3174 47.5944H38.4868V54.9165H40.3174V47.5944Z" fill="#8F32C1"/>
<path d="M26.9919 39.5118L22.5812 42.4525L21.0655 36.3906L19.2898 36.8336L21.1204 44.1558C21.1927 44.4441 21.4004 44.6802 21.6778 44.7873C21.7849 44.8285 21.8965 44.8487 22.0082 44.8487C22.1858 44.8487 22.3633 44.7974 22.5152 44.6958L28.0068 41.0347L26.9919 39.5118Z" fill="#8F32C1"/>
<path d="M33.4528 35.8169L27.4998 39.2189L21.5468 35.8169L20.6389 37.4058L27.0459 41.0669C27.1868 41.1475 27.3433 41.1878 27.4998 41.1878C27.6563 41.1878 27.8128 41.1475 27.9538 41.0669L34.3607 37.4058L33.4528 35.8169Z" fill="#8F32C1"/>
<path d="M33.9334 36.3896L32.4177 42.4516L28.007 39.5108L26.9919 41.0338L32.4835 44.6949C32.6364 44.7966 32.814 44.8487 32.9915 44.8487C33.1031 44.8487 33.2149 44.8286 33.3201 44.7865C33.5975 44.6794 33.8061 44.4433 33.8775 44.1549L35.7081 36.8328L33.9334 36.3896Z" fill="#8F32C1"/>
<path d="M26.5371 44.5584L25.6219 41.8126L23.8856 42.3919L24.7405 44.9565L23.8425 54.8333L25.6658 54.9999L26.5802 44.931C26.592 44.8056 26.5764 44.6783 26.5371 44.5584Z" fill="#8F32C1"/>
<path d="M30.2569 44.9576L31.1117 42.393L29.3763 41.8137L28.4611 44.5595C28.4218 44.6794 28.4071 44.8057 28.4181 44.9321L29.3334 55.0001L31.1548 54.8345L30.2569 44.9576Z" fill="#8F32C1"/>
<path d="M29.3345 43.9335H25.6733V45.764H29.3345V43.9335Z" fill="#8F32C1"/>
</g>
<defs>
<clipPath id="clip0">
<rect width="55" height="55" fill="white"/>
</clipPath>
</defs>
</svg>
