<svg width="55" height="55" viewBox="0 0 55 55" fill="none" xmlns="http://www.w3.org/2000/svg">
<path d="M8.25005 42.35V55H47.3L45.65 42.35L48.4 37.4V34.65L47.3 30.8V26.95L44 24.75V22L41.25 17.05L40.15 12.1L38.5 5.49998C37.4 4.58331 34.98 2.74998 34.1 2.74998C33.22 2.74998 30.4334 1.64998 29.15 1.09998L22 2.74998L16.5 7.69998L13.75 15.95V19.25L12.1 20.9L11 24.75L9.35005 25.85L8.25005 28.6V33.55L6.05005 37.4L8.25005 40.15V42.35Z" fill="#E73563" fill-opacity="0.06"/>
<path d="M33.0001 19.25C34.0127 19.25 34.8335 18.4292 34.8335 17.4166C34.8335 16.4041 34.0127 15.5833 33.0001 15.5833C31.9876 15.5833 31.1667 16.4041 31.1667 17.4166C31.1667 18.4292 31.9876 19.25 33.0001 19.25Z" fill="#E73563"/>
<path d="M26.8273 20.5041L28.371 15.874L26.632 15.2937L24.7987 20.7937C24.6383 21.274 24.8977 21.7928 25.378 21.9533L28.128 22.87L28.7073 21.131L26.8273 20.5041Z" fill="#E73563"/>
<path d="M22.0111 31.1666V35.0057C22.0148 35.4704 21.6702 35.8646 21.21 35.9223L12.96 36.9489C9.72874 37.3505 7.31056 40.1096 7.33527 43.3583V55H9.16864H9.16961V43.351C9.15124 41.0254 10.8783 39.0545 13.1874 38.7676L21.4374 37.741C22.8215 37.5687 23.8556 36.3861 23.8446 34.9983V31.1666H22.0111Z" fill="#E73563"/>
<path d="M42.0523 36.9939L33.8042 35.9682C33.3431 35.9095 32.9984 35.5162 33.002 35.0441V31.1666H31.1687V35.0377C31.1577 36.4311 32.1926 37.6136 33.5767 37.7877L41.8268 38.8135C44.1349 39.1012 45.8628 41.0712 45.8445 43.4041V55H47.6779V43.4106C47.7026 40.1546 45.2844 37.3954 42.0523 36.9939Z" fill="#E73563"/>
<path d="M38.502 14.6666H37.5853V16.5H38.502C39.513 16.5 40.3353 17.3222 40.3353 18.3334C40.3353 19.3444 39.5131 20.1667 38.502 20.1667H37.5853V22H38.502C40.5242 22 42.1686 20.3555 42.1686 18.3334C42.1686 16.3113 40.5242 14.6666 38.502 14.6666Z" fill="#E73563"/>
<path d="M34.9096 36.3055L34.3229 37.6714C33.1524 40.4022 30.4766 42.1667 27.5057 42.1667C27.5029 42.1667 27.5003 42.1667 27.4975 42.1667C24.5265 42.1667 21.8517 40.4021 20.6811 37.6714L20.0945 36.3055L18.4097 37.0288L18.9963 38.3937C20.4556 41.8001 23.7914 44.0001 27.4966 44.0001C27.4994 44.0001 27.503 44.0001 27.5067 44.0001C31.2109 44.0001 34.5477 41.8001 36.0079 38.3947L36.5945 37.0288L34.9096 36.3055Z" fill="#E73563"/>
<path d="M36.6705 14.6108L36.1654 22.8764C35.961 27.5249 32.1551 31.1667 27.502 31.1667C22.849 31.1667 19.0429 27.5248 18.8376 22.8607L18.3335 14.6107L16.5038 14.7225L17.0071 22.957C17.2555 28.588 21.8654 33 27.502 33C33.1385 33 37.7485 28.589 37.996 22.9725L38.5001 14.7225L36.6705 14.6108Z" fill="#E73563"/>
<path d="M29.8421 23.9297C28.7696 24.4668 27.5679 24.7501 26.368 24.7501C26.367 24.7501 26.3662 24.7501 26.3652 24.7501H25.6686V26.5834H26.3644C26.3653 26.5834 26.3662 26.5834 26.3671 26.5834C27.8512 26.5834 29.3362 26.2332 30.6626 25.5696L29.8421 23.9297Z" fill="#E73563"/>
<path d="M22.0001 19.25C23.0127 19.25 23.8335 18.4292 23.8335 17.4166C23.8335 16.4041 23.0127 15.5833 22.0001 15.5833C20.9876 15.5833 20.1667 16.4041 20.1667 17.4166C20.1667 18.4292 20.9876 19.25 22.0001 19.25Z" fill="#E73563"/>
<path d="M28.0822 6.62388C27.7439 6.34705 27.2582 6.34705 26.9208 6.62388L16.8374 14.8739L17.9988 16.2929L27.5019 8.51773L37.005 16.2929L38.1655 14.8739L28.0822 6.62388Z" fill="#E73563"/>
<path d="M16.502 16.5H17.4186V14.6666H16.502C14.4797 14.6666 12.8353 16.3111 12.8353 18.3333C12.8353 20.3554 14.4798 21.9999 16.502 21.9999H17.4186V20.1665H16.502C15.4909 20.1665 14.6686 19.3443 14.6686 18.3331C14.6686 17.3222 15.4909 16.5 16.502 16.5Z" fill="#E73563"/>
<path d="M27.5018 0C19.9201 0 13.7518 6.16827 13.7518 13.75V16.5H15.5852V13.75C15.5852 7.17933 20.9312 1.83337 27.5018 1.83337C34.0725 1.83337 39.4186 7.17933 39.4186 13.75V16.5H41.2519V13.75C41.2518 6.16827 35.0836 0 27.5018 0Z" fill="#E73563"/>
<path d="M28.4169 0.916626H26.5835V7.33325H28.4169V0.916626Z" fill="#E73563"/>
<path d="M10.0852 22.9295C10.0917 23.32 10.1475 23.7068 10.252 24.0809C7.86233 24.8537 6.23339 27.2039 6.46714 29.8082C6.55329 30.7652 6.88791 31.6754 7.42867 32.4537C6.61011 33.143 6.01145 34.0569 5.70347 35.1074C5.29001 36.5172 5.44953 38.0032 6.15443 39.292C6.74203 40.3664 7.68251 41.2243 8.80635 41.7074L9.53145 40.0216C8.78251 39.6999 8.15548 39.1279 7.76415 38.4119C7.29482 37.5521 7.18847 36.5621 7.46347 35.6216C7.73847 34.6812 8.36367 33.9057 9.22347 33.4364C9.4801 33.2961 9.65434 33.0404 9.6928 32.7507C9.73126 32.461 9.6277 32.1704 9.41597 31.9679C8.77155 31.3546 8.3728 30.5296 8.29309 29.6432C8.11155 27.6292 9.60213 25.8436 11.616 25.6621C11.9322 25.6337 12.2109 25.4439 12.353 25.1607C12.4951 24.8784 12.4814 24.541 12.3154 24.2706C12.0624 23.8581 11.9249 23.3851 11.9185 22.9158C11.9185 21.3996 13.1523 20.1658 14.6685 20.1658V18.3324C12.1413 18.3324 10.0852 20.3894 10.0852 22.9295Z" fill="#E73563"/>
<path d="M47.5743 32.4555C48.1151 31.6772 48.4496 30.767 48.5368 29.809C48.7715 27.2048 47.1407 24.8544 44.7509 24.0817C44.8563 23.705 44.9122 23.3145 44.9187 22.9166C44.9187 20.3894 42.8626 18.3333 40.3353 18.3333V20.1666C41.8515 20.1666 43.0853 21.4005 43.0853 22.9029C43.078 23.3869 42.9405 23.8599 42.6884 24.2714C42.5224 24.5418 42.5078 24.8782 42.6508 25.1615C42.7938 25.4448 43.0716 25.6345 43.3878 25.663C45.4018 25.8445 46.8922 27.631 46.7107 29.644C46.631 30.5305 46.2313 31.3563 45.5878 31.9687C45.3751 32.1704 45.2725 32.4619 45.311 32.7515C45.3486 33.0412 45.5237 33.2969 45.7803 33.4372C47.555 34.407 48.2094 36.6381 47.2406 38.4129C46.8483 39.1288 46.2203 39.7007 45.4723 40.0225L46.1974 41.7073C47.3195 41.2251 48.2608 40.3671 48.8494 39.2928C50.1217 36.9636 49.5276 34.1073 47.5743 32.4555Z" fill="#E73563"/>
</svg>
