<svg width="132" height="61" viewBox="0 0 132 61" fill="none" xmlns="http://www.w3.org/2000/svg">
<g clip-path="url(#clip0)">
<path d="M94.0286 34.3266C93.6838 34.4961 93.3643 34.6427 93.0536 34.8083C90.9926 35.9121 88.9391 37.0298 86.8691 38.1183C86.4637 38.3311 86.0103 38.4688 85.5633 38.5771C83.5186 39.0754 82.0726 38.1603 81.7872 36.0599C81.628 34.8937 81.7139 33.6931 81.7013 32.5078C81.6987 32.2364 81.7467 31.9636 81.7796 31.6016C80.2047 32.6875 78.7132 33.7403 77.1952 34.751C76.1634 35.438 75.124 36.13 74.0278 36.701C73.1463 37.1598 72.1688 37.2338 71.2292 36.7533C70.1835 36.2192 70.0004 35.4749 70.6002 34.4515C71.478 32.9552 72.3254 31.441 73.1842 29.932C73.2637 29.7931 73.3294 29.6465 73.4292 29.4451C72.3696 30.3271 71.3971 31.1925 70.3679 31.9814C68.9547 33.0661 67.448 34.022 65.6812 34.3788C64.9588 34.5254 64.1556 34.5598 63.4446 34.3992C61.8053 34.0296 61.0779 32.6493 61.4845 30.8471C61.6891 29.9448 61.9872 29.0641 62.2991 27.9807C61.9177 28.2114 61.6664 28.3338 61.4479 28.502C59.9917 29.621 58.5508 30.7605 57.0883 31.8718C56.4922 32.3243 55.8557 32.7207 55.2369 33.1438C55.1712 33.1068 55.1043 33.0699 55.0386 33.0342C55.0386 32.6557 54.9426 32.2427 55.0601 31.9062C55.2583 31.334 55.5564 30.7859 55.8759 30.2685C56.8534 28.6817 57.8562 27.1102 58.3108 25.2647C58.3411 25.1411 58.3765 25.0174 58.3916 24.8925C58.6 23.228 57.7753 22.5347 56.2333 23.1503C54.056 24.0182 52.3258 25.5387 50.7005 27.1905C47.9233 30.0136 46.4129 33.479 45.9216 37.3612C45.5516 40.2812 45.4568 43.2355 45.2396 46.1745C45.208 46.5977 45.1841 47.0208 45.1361 47.4427C45.078 47.95 44.7812 48.2495 44.2849 48.3259C43.7759 48.4037 43.3048 48.2507 43.1432 47.7473C42.8388 46.8042 42.5244 45.8457 42.3917 44.8694C41.8348 40.7578 41.7704 36.659 42.9651 32.6264C42.9752 32.5932 42.95 32.5486 42.9386 32.4989C42.0735 33.4 41.2337 34.3189 40.3408 35.1818C40.001 35.5093 39.5679 35.7834 39.1271 35.9478C38.3252 36.2473 37.7581 35.8445 37.7101 34.9715C37.6823 34.4706 37.7619 33.9633 37.7947 33.4229C36.893 33.5351 36.0102 33.6842 35.1224 33.7403C34.5629 33.776 33.9807 33.7403 33.4351 33.6154C32.5637 33.4153 32.2846 32.8838 32.4703 32.0006C32.8542 30.178 33.814 28.646 35.0226 27.3078C38.0145 23.9978 41.0745 20.7503 44.1093 17.4799C44.6978 16.8452 45.3002 16.2232 45.8218 15.5031C43.7923 17.0326 41.7616 18.562 39.7055 20.1105C39.7889 20.1845 39.8545 20.2316 39.9063 20.2915C40.044 20.4508 40.1753 20.6152 40.3079 20.7771C40.0806 20.8472 39.8571 20.9402 39.6234 20.9798C39.5123 20.9989 39.3696 20.9402 39.2686 20.8752C38.7798 20.5592 38.3593 20.7147 37.9286 21.0129C34.2005 23.6066 30.5746 26.3328 27.1673 29.3457C24.8044 31.4334 22.5677 33.646 20.5572 36.0867C20.2655 36.441 19.9219 36.789 19.5317 37.0145C19.2097 37.2019 18.7765 37.2911 18.4027 37.2682C17.8002 37.2299 17.6537 36.8986 18.0175 36.4155C18.409 35.8942 18.856 35.4074 19.3271 34.9575C20.4385 33.8945 21.6206 32.9042 22.6978 31.8094C26.1216 28.3274 29.5201 24.8199 32.906 21.2984C33.6637 20.5107 34.328 19.6313 35.0201 18.8118C33.2306 17.9451 31.4461 17.188 29.7689 16.2373C28.3469 15.4318 26.9741 14.495 25.7175 13.4486C24.178 12.1664 24.0971 11.0907 25.1555 9.37649C25.9132 8.14785 26.9134 7.15627 28.1587 6.43234C32.6761 3.80682 37.4979 1.95621 42.5862 0.862668C44.5728 0.435703 46.6137 0.25472 48.6381 0.0291294C49.2721 -0.0409694 49.9503 0.0278549 50.5729 0.180798C51.5062 0.408938 51.88 1.10355 51.4759 1.97915C51.0819 2.83436 50.5527 3.64623 49.9756 4.3931C46.2601 9.2006 42.4713 13.9469 38.0562 18.1376C37.9665 18.223 37.8869 18.3198 37.7922 18.4205C38.1862 18.9265 38.5323 18.9367 39.0324 18.5327C43.243 15.1284 47.7036 12.0887 52.3498 9.32678C53.7075 8.52001 55.1409 7.84069 56.4973 7.03136C58.0165 6.12645 59.4942 5.14634 60.9819 4.1879C61.7573 3.68829 62.5731 3.30975 63.5077 3.29701C63.7123 3.29446 64.0546 3.3875 64.0937 3.51368C64.1556 3.71123 64.0836 4.03496 63.9447 4.19555C63.6731 4.51036 63.3486 4.80732 62.9899 5.01252C57.9938 7.88402 53.5673 11.5381 49.1382 15.1985C44.4175 19.0998 40.2928 23.5454 36.7604 28.5594C36.3462 29.1469 35.8448 29.6797 35.4836 30.2965C35.1401 30.8828 34.9279 31.5468 34.6576 32.1764C34.7094 32.2274 34.7625 32.2797 34.8143 32.3307C35.0264 32.2988 35.2436 32.2848 35.4508 32.2313C37.3224 31.7444 38.8114 30.6432 40.1892 29.319C40.726 28.8041 41.4041 28.4344 42.0331 28.0215C42.3993 27.7806 42.763 27.8762 43.0636 28.1681C43.4842 28.5759 43.9148 28.618 44.4377 28.3491C44.9832 28.0687 45.3369 28.2598 45.3634 28.8984C45.3886 29.505 45.2927 30.1219 45.1929 30.726C44.8974 32.5027 44.6031 34.2781 44.8721 36.1186C44.9239 35.9784 44.9833 35.8407 45.0249 35.698C46.697 29.853 49.9629 25.1908 55.1219 21.9713C56.0035 21.422 56.9923 20.9836 57.9888 20.7006C60.0688 20.1105 61.8116 21.436 61.8798 23.6231C61.9051 24.4171 61.7068 25.2175 61.607 26.0154C61.5767 26.2576 61.535 26.4972 61.4858 26.8285C63.0594 25.8191 64.6191 25.0429 66.3657 24.7715C66.7041 24.7192 67.2346 24.8173 67.4114 25.0519C67.7069 25.4406 67.4493 25.9173 67.102 26.2333C66.5248 26.7584 65.8845 27.216 65.3301 27.764C64.7782 28.3108 64.2516 28.8971 63.8032 29.5318C63.3802 30.1308 63.197 30.8306 63.4244 31.5863C63.7325 32.6085 64.4448 33.0686 65.4501 32.7219C66.1964 32.4645 66.9176 32.0872 67.5894 31.6654C71.4451 29.245 74.3524 25.8484 77.0866 22.2607C80.5785 17.6813 84.1475 13.1567 88.2849 9.14325C89.5806 7.88657 91.062 6.81852 92.5043 5.72625C93.0764 5.29419 93.7141 5.54017 94.0438 6.19528C94.1019 6.31126 94.0728 6.53048 93.9983 6.64391C93.7659 6.99568 93.5146 7.33852 93.233 7.64951C90.6869 10.4471 88.0891 13.1988 85.5911 16.0384C81.3072 20.9097 77.5678 26.1964 74.1452 31.7112C73.5719 32.6366 73.2018 33.6906 72.7497 34.6911C72.6853 34.8351 72.6841 35.0084 72.6272 35.3105C73.5239 34.8772 74.3322 34.5369 75.0924 34.1086C78.1462 32.3867 80.9069 30.2914 83.1562 27.5563C83.8583 26.7024 84.5908 25.8803 85.6807 25.5107C85.8399 25.4572 86.0002 25.3526 86.1581 25.3577C86.5193 25.3692 87.0712 25.3106 87.1924 25.5043C87.3566 25.7669 87.2745 26.2754 87.1407 26.6132C86.9803 27.0146 86.6772 27.3689 86.3917 27.7054C84.5062 29.9346 83.7055 32.5168 83.9025 35.4252C83.9177 35.6559 83.9644 35.8891 84.0288 36.1122C84.2802 36.9827 84.8232 37.3383 85.6517 36.9865C86.926 36.4448 88.2116 35.8828 89.3773 35.1423C90.9572 34.1379 92.4411 32.9756 93.9427 31.8489C95.3256 30.8102 96.2463 30.995 96.9939 32.5792C97.4637 33.5733 97.8413 34.6108 98.2808 35.6202C98.4236 35.949 98.6092 36.2613 98.8075 36.5595C99.1699 37.105 99.6814 37.3689 100.329 37.1981C102.318 36.6717 104.316 36.1746 106.28 35.5629C107.266 35.2557 108.215 35.141 109.185 35.4494C113.27 36.7469 114.192 38.9085 114.301 42.0336C114.355 43.5732 114.09 45.0721 113.656 46.5493C113.094 48.4559 111.89 49.7802 110.18 50.7131C107.344 52.2604 104.296 53.2227 101.186 53.9657C97.8755 54.7572 94.5325 55.4148 91.2072 56.1451C90.8688 56.2191 90.3081 56.1401 90.3333 56.6613C90.3598 57.2081 90.8966 57.2782 91.3436 57.3062C95.4178 57.5611 99.4932 57.7944 103.567 58.0633C108.312 58.3756 113.058 58.6802 117.798 59.0574C121.488 59.3519 125.171 59.7406 128.854 60.114C129.895 60.2198 130.928 60.4174 131.964 60.5741C131.974 60.6391 131.984 60.7041 131.994 60.7704C131.704 60.8507 131.412 61.0011 131.122 60.9998C128.976 60.9896 126.827 61.0189 124.686 60.9029C119.581 60.6264 114.478 60.3128 109.378 59.9458C105.098 59.6373 100.827 59.1925 96.5469 58.8803C93.2734 58.6407 89.9936 58.4571 86.7138 58.3501C81.9816 58.1971 77.2457 58.0544 72.511 58.0646C68.9812 58.0722 65.4475 58.2596 61.9227 58.4903C57.1994 58.8 52.485 59.2473 47.7642 59.6017C40.4784 60.1472 33.18 60.4505 25.8778 60.3001C19.2311 60.1637 12.5869 59.8527 5.94398 59.5405C4.48658 59.4717 3.03927 59.102 1.60081 58.8076C1.1651 58.7184 0.731925 58.4712 0.368205 58.1997C-0.19253 57.7804 -0.109178 57.1571 0.517229 56.8538C2.548 55.8737 4.73663 55.4442 6.92148 55.0032C13.2095 53.7325 19.5809 53.5005 25.9587 53.6037C34.4796 53.7414 43.0005 53.9695 51.5176 54.2831C54.7494 54.4016 57.966 54.8948 61.1953 55.1612C64.047 55.3957 66.9037 55.578 69.7604 55.7347C72.8697 55.9068 75.9815 56.0929 79.0946 56.1375C80.6821 56.1604 82.2746 55.8941 83.8647 55.75C89.3432 55.2504 94.6929 54.009 100.045 52.811C102.422 52.2795 104.64 51.3109 106.591 49.7878C109.305 47.6683 110.297 44.8337 109.968 41.4741C109.888 40.6622 109.708 39.8325 109.41 39.0754C108.834 37.6123 107.717 37.0821 106.207 37.4517C104.084 37.9704 101.962 38.5006 99.8456 39.0436C97.9727 39.5241 96.4888 38.9875 95.4026 37.3663C95.0983 36.9126 94.8508 36.4142 94.6234 35.9146C94.4075 35.4176 94.242 34.895 94.0286 34.3266ZM27.55 11.4361C27.5285 12.0517 27.8038 12.7043 28.3115 13.2026C28.895 13.7761 29.4986 14.3866 30.2071 14.7575C32.0308 15.7121 33.9138 16.5521 35.7854 17.4085C35.9269 17.4735 36.2275 17.3754 36.3525 17.2492C37.2024 16.3966 38.0511 15.5401 38.8531 14.6415C41.3423 11.8516 43.8504 9.07825 46.2613 6.22077C47.038 5.30056 47.624 4.18153 48.1304 3.07652C48.5598 2.13974 48.0951 1.63758 47.0734 1.82748C42.6683 2.64573 38.3151 3.67172 34.1929 5.49556C32.0851 6.42851 30.0872 7.55519 28.4858 9.27325C27.9579 9.84169 27.579 10.4942 27.55 11.4361ZM3.13399 57.9027C3.12894 57.9741 3.12263 58.0467 3.11757 58.1181C4.45753 58.3526 5.7899 58.7261 7.13744 58.7962C11.4225 59.0218 15.7126 59.2652 20.0015 59.2563C25.4295 59.2448 30.8575 59.0345 36.283 58.8357C44.3139 58.5413 52.3536 58.3743 60.3567 57.5408C61.3709 57.435 62.3837 57.3101 63.3978 57.1941C63.3953 57.1304 63.3928 57.0679 63.3903 57.0042C61.8204 56.9137 60.2494 56.8232 58.6796 56.734C52.461 56.3797 46.2474 55.9068 40.0238 55.7029C32.6622 55.462 25.2944 55.4454 17.9291 55.3473C14.5167 55.3014 11.1106 55.4072 7.75879 56.1502C6.13594 56.5109 4.56361 57.0233 3.13399 57.9027ZM42.8211 30.28C41.168 30.5451 39.5514 32.801 40.1589 33.9353C41.1225 33.6269 42.7353 31.441 42.8211 30.28ZM37.2668 19.7843C37.0496 19.6517 36.9031 19.5612 36.7427 19.4631C36.3184 19.9946 35.9231 20.4878 35.5291 20.981C35.5657 21.018 35.601 21.0537 35.6377 21.0906C36.1605 20.6713 36.6846 20.252 37.2668 19.7843Z" fill="white"/>
</g>
<defs>
<clipPath id="clip0">
<rect width="132" height="61" fill="white"/>
</clipPath>
</defs>
</svg>
