<svg width="55" height="55" viewBox="0 0 55 55" fill="none" xmlns="http://www.w3.org/2000/svg">
<path d="M8.5 47V55H46.5V44L44.5 38L40.5 37L34.5 36L31.5 33.5V31L33 29.5L34.5 27L37 24.5L39.5 29.5L44.5 31V24.5V15L43.5 12L42 10.5L39.5 9L37 7L34.5 2.5L30.5 1.5H25.5L22.5 2.5L18 5L16 10.5L15 15L13 16.5L15 20L18 21L19 27L22.5 29.5V35L18 37H13L9.5 39.5L8.5 47Z" fill="#F56F3F" fill-opacity="0.06"/>
<g clip-path="url(#clip0)">
<path d="M24.6328 5.96757C24.477 5.68978 24.1827 5.50738 23.8546 5.50007C23.4449 5.46892 23.091 5.74574 22.9636 6.12709C22.1157 8.67181 18.504 12.2825 16.7688 14.0187L18.065 15.3149C19.7534 13.6273 22.6831 10.6977 24.115 8.03748C26.7275 10.5913 33.156 15.5834 37.5835 15.5834V13.7501C33.035 13.7501 25.3377 6.83747 24.6328 5.96757Z" fill="#F56F3F"/>
<path d="M28.4168 13.75H25.6667V15.5834H28.4168V13.75Z" fill="#F56F3F"/>
<path d="M35.916 3.67404C33.5454 1.30442 30.3949 0 27.0435 0C27.0425 0 27.0417 0 27.0417 0C26.4862 0 25.9261 0.0375977 25.3789 0.109033C22.0569 0.552686 19.1061 2.26316 17.0702 4.92701C15.0343 7.59086 14.158 10.8872 14.6007 14.2036L14.6741 14.7811L16.4927 14.5502L16.4185 13.9672C16.04 11.1301 16.7888 8.31499 18.5269 6.04173C20.2649 3.7675 22.7848 2.30635 25.6219 1.92769C26.0894 1.86538 26.567 1.83326 27.0418 1.83326C27.0428 1.83326 27.0428 1.83326 27.0436 1.83326C32.9506 1.83326 37.7577 6.63932 37.7595 12.5473C37.7595 13.0212 37.7274 13.4988 37.6641 13.9737L37.5907 14.5512L39.4094 14.7821L39.4827 14.2092C39.5561 13.6611 39.5927 13.1019 39.5927 12.5473C39.5918 9.1951 38.2865 6.04355 35.916 3.67404Z" fill="#F56F3F"/>
<path d="M25.8729 20.4911L27.4651 14.9187L25.7023 14.4146L23.869 20.8312C23.7342 21.3042 23.9945 21.7983 24.4602 21.9532L27.2102 22.8698L27.7905 21.13L25.8729 20.4911Z" fill="#F56F3F"/>
<path d="M38.5001 13.75H37.5835V15.5834H38.5001C39.5112 15.5834 40.3335 16.4056 40.3335 17.4167C40.3335 18.4278 39.5113 19.2501 38.5001 19.2501H37.5835V21.0835H38.5001C40.5223 21.0835 42.1668 19.439 42.1668 17.4168C42.1668 15.3947 40.5223 13.75 38.5001 13.75Z" fill="#F56F3F"/>
<path d="M36.6686 13.694L36.1635 21.9595C35.9592 26.608 32.1531 30.2499 27.5001 30.2499C22.8472 30.2499 19.0411 26.608 18.8358 21.9367L18.3317 14.6033L16.5029 14.7289L17.0052 22.0402C17.2537 27.6713 21.8636 32.0832 27.5001 32.0832C33.1367 32.0832 37.7475 27.6722 37.9942 22.0558L38.4983 13.8058L36.6686 13.694Z" fill="#F56F3F"/>
<path d="M16.4999 15.5834H17.4165V13.75H16.4999C14.4777 13.75 12.8333 15.3945 12.8333 17.4166C12.8333 19.4387 14.4778 21.0833 16.4999 21.0833H17.4165V19.25H16.4999C15.4888 19.25 14.6665 18.4278 14.6665 17.4166C14.6665 16.4056 15.4888 15.5834 16.4999 15.5834Z" fill="#F56F3F"/>
<path d="M29.8403 23.0129C28.7678 23.55 27.5661 23.8333 26.3662 23.8333C26.3652 23.8333 26.3643 23.8333 26.3634 23.8333H25.6667V25.6667H26.3634C26.3642 25.6667 26.3652 25.6667 26.3662 25.6667C27.8494 25.6667 29.3344 25.3165 30.6608 24.6528L29.8403 23.0129Z" fill="#F56F3F"/>
<path d="M38.5001 8.25V10.0834C41.5975 10.0834 44.0001 13.5328 44.0001 16.5V30.1849C40.8944 29.7384 38.5001 27.0608 38.5001 23.8334V20.1667H36.6667V23.8334C36.6667 28.3828 40.3673 32.0834 44.9167 32.0834C45.4237 32.0834 45.8334 31.6736 45.8334 31.1667V16.5C45.8335 12.6051 42.6975 8.25 38.5001 8.25Z" fill="#F56F3F"/>
<path d="M25.6666 13.75H17.4166C16.9107 13.75 16.5 14.1607 16.5 14.6666V17.4166C16.5 19.4388 18.1445 21.0833 20.1666 21.0833H22.9166C24.9388 21.0833 26.5833 19.4387 26.5833 17.4166V14.6666C26.5834 14.1607 26.1727 13.75 25.6666 13.75ZM24.75 17.4166C24.75 18.4277 23.9278 19.25 22.9166 19.25H20.1666C19.1556 19.25 18.3333 18.4278 18.3333 17.4166V15.5833H24.75V17.4166Z" fill="#F56F3F"/>
<path d="M36.6666 13.75H28.4166C27.9107 13.75 27.5 14.1607 27.5 14.6666V17.4166C27.5 19.4388 29.1445 21.0833 31.1666 21.0833H33.9166C35.9388 21.0833 37.5833 19.4387 37.5833 17.4166V14.6666C37.5834 14.1607 37.1736 13.75 36.6666 13.75ZM35.75 17.4166C35.75 18.4277 34.9278 19.25 33.9166 19.25H31.1666C30.1556 19.25 29.3333 18.4278 29.3333 17.4166V15.5833H35.75V17.4166Z" fill="#F56F3F"/>
<path d="M37.7675 36.1166C37.0369 37.09 36.1743 37.9526 35.2008 38.6832C32.4581 40.7402 29.0766 41.6037 25.6858 41.1206C22.2924 40.6357 19.2903 38.8583 17.2332 36.1166L15.7666 37.2157C18.645 41.0538 23.0551 43.0778 27.5182 43.0778C30.5799 43.0778 33.6681 42.1245 36.3008 40.1491C37.4136 39.315 38.4 38.3286 39.2342 37.2157L37.7675 36.1166Z" fill="#F56F3F"/>
<path d="M21.9919 30.25V34.1257C21.9947 34.5904 21.6499 34.9846 21.1907 35.0423L14.5522 35.8673C10.4355 36.3862 7.33253 39.9062 7.3335 44.055V55H9.16687V44.055C9.16601 40.8274 11.5796 38.0893 14.7815 37.686L21.4191 36.861C22.8014 36.6887 23.8363 35.5061 23.8253 34.1183V30.25H21.9919Z" fill="#F56F3F"/>
<path d="M40.4462 35.8673L33.8104 35.0423C33.3502 34.9845 33.0056 34.5904 33.0092 34.1183V30.25H31.1759V34.1119C31.1649 35.5062 32.1998 36.6896 33.5839 36.8619L40.2188 37.6869C43.4207 38.0893 45.8342 40.8274 45.8334 44.055V55H47.6667V44.055C47.6677 39.9053 44.5639 36.3853 40.4462 35.8673Z" fill="#F56F3F"/>
<path d="M21.9999 18.3334C23.0124 18.3334 23.8332 17.5125 23.8332 16.5C23.8332 15.4875 23.0124 14.6666 21.9999 14.6666C20.9873 14.6666 20.1665 15.4875 20.1665 16.5C20.1665 17.5125 20.9873 18.3334 21.9999 18.3334Z" fill="#F56F3F"/>
<path d="M32.9999 18.3334C34.0124 18.3334 34.8332 17.5125 34.8332 16.5C34.8332 15.4875 34.0124 14.6666 32.9999 14.6666C31.9873 14.6666 31.1665 15.4875 31.1665 16.5C31.1665 17.5125 31.9873 18.3334 32.9999 18.3334Z" fill="#F56F3F"/>
</g>
<defs>
<clipPath id="clip0">
<rect width="55" height="55" fill="white"/>
</clipPath>
</defs>
</svg>
