<svg width="25" height="22" viewBox="0 0 25 22" fill="none" xmlns="http://www.w3.org/2000/svg">
<path d="M23.3809 18.6192C23.3809 17.3043 22.3149 16.2383 21 16.2383C19.685 16.2383 18.619 17.3043 18.619 18.6192C18.619 19.9342 19.685 21.0002 21 21.0002C22.3149 21.0002 23.3809 19.9342 23.3809 18.6192Z" stroke="#8F32C1" stroke-width="2" stroke-linecap="round" stroke-linejoin="round"/>
<path d="M5.7619 18.6192C5.7619 17.3043 4.69592 16.2383 3.38095 16.2383C2.06599 16.2383 1 17.3043 1 18.6192C1 19.9342 2.06599 21.0002 3.38095 21.0002C4.69592 21.0002 5.7619 19.9342 5.7619 18.6192Z" stroke="#8F32C1" stroke-width="2" stroke-linecap="round" stroke-linejoin="round"/>
<path d="M14.8095 3.38095C14.8095 2.06599 13.7435 1 12.4286 1C11.1136 1 10.0476 2.06599 10.0476 3.38095C10.0476 4.69592 11.1136 5.7619 12.4286 5.7619C13.7435 5.7619 14.8095 4.69592 14.8095 3.38095Z" stroke="#8F32C1" stroke-width="2" stroke-linecap="round" stroke-linejoin="round"/>
<path d="M3.38098 15.7619V11H21V15.7619" stroke="#8F32C1" stroke-width="2" stroke-linecap="round" stroke-linejoin="round"/>
<path d="M12.4286 6.71436V10.5239" stroke="#8F32C1" stroke-width="2" stroke-linecap="round" stroke-linejoin="round"/>
</svg>
