<svg width="30" height="25" viewBox="0 0 30 25" fill="none" xmlns="http://www.w3.org/2000/svg">
<path d="M19.75 23.5V21C19.75 19.6739 19.2232 18.4021 18.2855 17.4645C17.3479 16.5268 16.0761 16 14.75 16H6C4.67392 16 3.40215 16.5268 2.46447 17.4645C1.52678 18.4021 1 19.6739 1 21V23.5" stroke="white" stroke-width="2" stroke-linecap="round" stroke-linejoin="round"/>
<path d="M10.375 11C13.1364 11 15.375 8.76142 15.375 6C15.375 3.23858 13.1364 1 10.375 1C7.61358 1 5.375 3.23858 5.375 6C5.375 8.76142 7.61358 11 10.375 11Z" stroke="white" stroke-width="2" stroke-linecap="round" stroke-linejoin="round"/>
<path d="M24.75 7.25V14.75" stroke="white" stroke-width="2" stroke-linecap="round" stroke-linejoin="round"/>
<path d="M28.5 11H21" stroke="white" stroke-width="2" stroke-linecap="round" stroke-linejoin="round"/>
</svg>
