<svg width="18" height="12" viewBox="0 0 18 12" fill="none" xmlns="http://www.w3.org/2000/svg">
    <path
        d="M17.1875 1.875C17.0833 1.5 16.8958 1.17708 16.625 0.90625C16.3542 0.635417 16.0312 0.447917 15.6562 0.34375C15.1146 0.197917 13.8438 0.09375 11.8438 0.03125L9 0L6.15625 0.03125C4.15625 0.09375 2.88542 0.197917 2.34375 0.34375C1.96875 0.447917 1.64583 0.635417 1.375 0.90625C1.10417 1.17708 0.916667 1.5 0.8125 1.875C0.666667 2.4375 0.5625 3.29167 0.5 4.4375C0.479167 5.02083 0.46875 5.54167 0.46875 6L0.5 7.5625C0.5625 8.72917 0.666667 9.59375 0.8125 10.1562C0.916667 10.5104 1.10417 10.8229 1.375 11.0938C1.64583 11.3646 1.96875 11.5521 2.34375 11.6562C2.88542 11.8021 4.15625 11.9062 6.15625 11.9688L9 12L11.8438 11.9688C13.8438 11.9062 15.1146 11.8021 15.6562 11.6562C16.0312 11.5521 16.3542 11.3646 16.625 11.0938C16.8958 10.8229 17.0833 10.5104 17.1875 10.1562C17.3333 9.59375 17.4375 8.72917 17.5 7.5625L17.5312 6L17.5 4.4375C17.4375 3.29167 17.3333 2.4375 17.1875 1.875ZM7.25 8.5625V3.46875L11.7188 6L7.25 8.5625Z"
        fill="#859098"/>
</svg>
