<svg width="50" height="50" viewBox="0 0 50 50" fill="none" xmlns="http://www.w3.org/2000/svg">
<path fill-rule="evenodd" clip-rule="evenodd" d="M47.9167 31.2499H2.08337V5.8145C2.08337 3.75409 3.75421 2.08325 5.81462 2.08325H44.1855C46.2459 2.08325 47.9167 3.75409 47.9167 5.8145V31.2499Z" fill="#F6EFFA"/>
<path d="M39.5834 8.33325V24.9999" stroke="#8F32C1" stroke-width="2" stroke-linecap="round" stroke-linejoin="round"/>
<path d="M39.5834 10.4165H35.4167" stroke="#8F32C1" stroke-width="2" stroke-linecap="round" stroke-linejoin="round"/>
<path d="M31.25 16.6665H39.5833" stroke="#8F32C1" stroke-width="2" stroke-linecap="round" stroke-linejoin="round"/>
<path d="M33.3334 22.9165H39.5834" stroke="#8F32C1" stroke-width="2" stroke-linecap="round" stroke-linejoin="round"/>
<path fill-rule="evenodd" clip-rule="evenodd" d="M47.9167 31.2499H2.08337V5.8145C2.08337 3.75409 3.75421 2.08325 5.81462 2.08325H44.1855C46.2459 2.08325 47.9167 3.75409 47.9167 5.8145V31.2499Z" stroke="#8F32C1" stroke-width="2" stroke-linecap="round" stroke-linejoin="round"/>
<path fill-rule="evenodd" clip-rule="evenodd" d="M44.1864 39.5833H5.81352C3.7531 39.5833 2.08435 37.9125 2.08435 35.8521V31.25H47.9177V35.8521C47.9177 37.9125 46.2469 39.5833 44.1864 39.5833Z" fill="#F6EFFA"/>
<path fill-rule="evenodd" clip-rule="evenodd" d="M44.1864 39.5833H5.81352C3.7531 39.5833 2.08435 37.9125 2.08435 35.8521V31.25H47.9177V35.8521C47.9177 37.9125 46.2469 39.5833 44.1864 39.5833Z" stroke="#8F32C1" stroke-width="2" stroke-linecap="round" stroke-linejoin="round"/>
<path fill-rule="evenodd" clip-rule="evenodd" d="M33.3334 47.9166H16.6667L18.7501 39.5833H31.2501L33.3334 47.9166Z" fill="#F6EFFA"/>
<path fill-rule="evenodd" clip-rule="evenodd" d="M33.3334 47.9166H16.6667L18.7501 39.5833H31.2501L33.3334 47.9166Z" stroke="#8F32C1" stroke-width="2" stroke-linecap="round" stroke-linejoin="round"/>
<path d="M14.5834 47.9165H35.4167" stroke="#8F32C1" stroke-width="2" stroke-linecap="round" stroke-linejoin="round"/>
<path d="M10.4167 20.8333C10.4167 23.1353 12.2813 24.9999 14.5834 24.9999C15.7459 24.9999 16.7959 24.5249 17.5522 23.7562C18.7084 22.5812 18.5522 20.6353 17.3876 19.4708L11.8022 13.8853C10.5042 12.5874 10.5417 10.4041 11.973 9.252C12.6876 8.677 13.5959 8.33325 14.5834 8.33325C16.8855 8.33325 18.7501 10.1978 18.7501 12.4999" stroke="#8F32C1" stroke-width="2" stroke-linecap="round" stroke-linejoin="round"/>
</svg>
