<svg width="50" height="50" viewBox="0 0 50 50" fill="none" xmlns="http://www.w3.org/2000/svg">
<path fill-rule="evenodd" clip-rule="evenodd" d="M47.9167 31.2499H2.08337V5.8145C2.08337 3.75409 3.75421 2.08325 5.81462 2.08325H44.1855C46.2459 2.08325 47.9167 3.75409 47.9167 5.8145V31.2499Z" fill="#F6EFFA"/>
<path fill-rule="evenodd" clip-rule="evenodd" d="M47.9167 31.2499H2.08337V5.8145C2.08337 3.75409 3.75421 2.08325 5.81462 2.08325H44.1855C46.2459 2.08325 47.9167 3.75409 47.9167 5.8145V31.2499Z" stroke="#8F32C1" stroke-width="2" stroke-linecap="round" stroke-linejoin="round"/>
<path fill-rule="evenodd" clip-rule="evenodd" d="M44.1866 39.5833H5.81364C3.75322 39.5833 2.08447 37.9125 2.08447 35.8521V31.25H47.9178V35.8521C47.9178 37.9125 46.247 39.5833 44.1866 39.5833Z" fill="#F6EFFA"/>
<path fill-rule="evenodd" clip-rule="evenodd" d="M44.1866 39.5833H5.81364C3.75322 39.5833 2.08447 37.9125 2.08447 35.8521V31.25H47.9178V35.8521C47.9178 37.9125 46.247 39.5833 44.1866 39.5833Z" stroke="#8F32C1" stroke-width="2" stroke-linecap="round" stroke-linejoin="round"/>
<path fill-rule="evenodd" clip-rule="evenodd" d="M33.3334 47.9166H16.6667L18.7501 39.5833H31.2501L33.3334 47.9166Z" fill="#F6EFFA"/>
<path fill-rule="evenodd" clip-rule="evenodd" d="M33.3334 47.9166H16.6667L18.7501 39.5833H31.2501L33.3334 47.9166Z" stroke="#8F32C1" stroke-width="2" stroke-linecap="round" stroke-linejoin="round"/>
<path d="M14.5834 47.9165H35.4167" stroke="#8F32C1" stroke-width="2" stroke-linecap="round" stroke-linejoin="round"/>
<path d="M8.33337 8.33325H12.5" stroke="#8F32C1" stroke-width="2" stroke-linecap="round" stroke-linejoin="round"/>
<path d="M8.33337 16.6665H10.4167" stroke="#8F32C1" stroke-width="2" stroke-linecap="round" stroke-linejoin="round"/>
<path d="M8.33337 25H12.5" stroke="#8F32C1" stroke-width="2" stroke-linecap="round" stroke-linejoin="round"/>
<path d="M16.6667 20.8333L22.9167 14.5833L29.1668 20.8333L41.6668 8.33325V16.6666" stroke="#8F32C1" stroke-width="2" stroke-linecap="round" stroke-linejoin="round"/>
<path d="M41.6667 8.33325H33.3334" stroke="#8F32C1" stroke-width="2" stroke-linecap="round" stroke-linejoin="round"/>
</svg>
