<svg width="50" height="50" viewBox="0 0 50 50" fill="none" xmlns="http://www.w3.org/2000/svg">
<path fill-rule="evenodd" clip-rule="evenodd" d="M47.9167 31.2499H2.08337V5.8145C2.08337 3.75409 3.75421 2.08325 5.81462 2.08325H44.1855C46.2459 2.08325 47.9167 3.75409 47.9167 5.8145V31.2499Z" fill="#FFF6F3"/>
<path fill-rule="evenodd" clip-rule="evenodd" d="M27.0834 16.6666C27.0834 21.2687 23.3522 24.9999 18.7501 24.9999C14.148 24.9999 10.4167 21.2687 10.4167 16.6666C10.4167 12.0645 14.148 8.33325 18.7501 8.33325C23.3522 8.33325 27.0834 12.0645 27.0834 16.6666Z" stroke="#F56F3F" stroke-width="2" stroke-linecap="round" stroke-linejoin="round"/>
<path fill-rule="evenodd" clip-rule="evenodd" d="M18.75 8.33325V16.6666H27.0833C27.0833 12.0645 23.3521 8.33325 18.75 8.33325Z" stroke="#F56F3F" stroke-width="2" stroke-linecap="round" stroke-linejoin="round"/>
<path d="M39.5834 10.4165H33.3334" stroke="#F56F3F" stroke-width="2" stroke-linecap="round" stroke-linejoin="round"/>
<path d="M39.5833 22.9165H31.25" stroke="#F56F3F" stroke-width="2" stroke-linecap="round" stroke-linejoin="round"/>
<path d="M39.5834 16.6665H35.4167" stroke="#F56F3F" stroke-width="2" stroke-linecap="round" stroke-linejoin="round"/>
<path fill-rule="evenodd" clip-rule="evenodd" d="M47.9167 31.2499H2.08337V5.8145C2.08337 3.75409 3.75421 2.08325 5.81462 2.08325H44.1855C46.2459 2.08325 47.9167 3.75409 47.9167 5.8145V31.2499Z" stroke="#F56F3F" stroke-width="2" stroke-linecap="round" stroke-linejoin="round"/>
<path fill-rule="evenodd" clip-rule="evenodd" d="M44.1864 39.5833H5.81352C3.7531 39.5833 2.08435 37.9125 2.08435 35.8521V31.25H47.9177V35.8521C47.9177 37.9125 46.2469 39.5833 44.1864 39.5833Z" fill="#FFF6F3"/>
<path fill-rule="evenodd" clip-rule="evenodd" d="M44.1864 39.5833H5.81352C3.7531 39.5833 2.08435 37.9125 2.08435 35.8521V31.25H47.9177V35.8521C47.9177 37.9125 46.2469 39.5833 44.1864 39.5833Z" stroke="#F56F3F" stroke-width="2" stroke-linecap="round" stroke-linejoin="round"/>
<path fill-rule="evenodd" clip-rule="evenodd" d="M33.3334 47.9166H16.6667L18.7501 39.5833H31.2501L33.3334 47.9166Z" fill="#FFF6F3"/>
<path fill-rule="evenodd" clip-rule="evenodd" d="M33.3334 47.9166H16.6667L18.7501 39.5833H31.2501L33.3334 47.9166Z" stroke="#F56F3F" stroke-width="2" stroke-linecap="round" stroke-linejoin="round"/>
<path d="M14.5834 47.9165H35.4167" stroke="#F56F3F" stroke-width="2" stroke-linecap="round" stroke-linejoin="round"/>
</svg>
