<svg width="48" height="48" viewBox="0 0 48 48" fill="none" xmlns="http://www.w3.org/2000/svg">
<path fill-rule="evenodd" clip-rule="evenodd" d="M46.9167 30.2499H1.08337V4.8145C1.08337 2.75409 2.75421 1.08325 4.81462 1.08325H43.1855C45.2459 1.08325 46.9167 2.75409 46.9167 4.8145V30.2499Z" fill="#FEF3F6"/>
<path fill-rule="evenodd" clip-rule="evenodd" d="M43.1864 38.5833H4.81352C2.7531 38.5833 1.08435 36.9125 1.08435 34.8521V30.25H46.9177V34.8521C46.9177 36.9125 45.2469 38.5833 43.1864 38.5833Z" fill="#FEF3F6" stroke="#E73563" stroke-width="2" stroke-linecap="round" stroke-linejoin="round"/>
<path fill-rule="evenodd" clip-rule="evenodd" d="M40.6667 23.9998C40.6667 25.1498 39.7333 26.0832 38.5833 26.0832C37.4333 26.0832 36.5 25.1498 36.5 23.9998C36.5 22.8498 37.4333 21.9165 38.5833 21.9165C39.7333 21.9165 40.6667 22.8498 40.6667 23.9998Z" fill="#E73563"/>
<path fill-rule="evenodd" clip-rule="evenodd" d="M11.5 7.33333C11.5 8.48333 10.5667 9.41667 9.41671 9.41667C8.26671 9.41667 7.33337 8.48333 7.33337 7.33333C7.33337 6.18333 8.26671 5.25 9.41671 5.25C10.5667 5.25 11.5 6.18333 11.5 7.33333Z" fill="#E73563"/>
<path fill-rule="evenodd" clip-rule="evenodd" d="M17.7501 19.8332C17.7501 22.1353 15.8855 23.9998 13.5834 23.9998C11.2813 23.9998 9.41675 22.1353 9.41675 19.8332C9.41675 17.5311 11.2813 15.6665 13.5834 15.6665C15.8855 15.6665 17.7501 17.5311 17.7501 19.8332Z" stroke="#E73563" stroke-width="2" stroke-linecap="round" stroke-linejoin="round"/>
<path d="M38.5833 11.4999L34.4167 7.33325L30.25 11.4999" stroke="#E73563" stroke-width="2" stroke-linecap="round" stroke-linejoin="round"/>
<path d="M13.5834 15.6666C13.5834 12.7895 15.9146 10.4583 18.7917 10.4583C21.6688 10.4583 24 12.7895 24 15.6666C24 18.5437 26.3313 20.8749 29.2084 20.8749C32.0855 20.8749 34.4167 18.5437 34.4167 15.6666V7.33325" stroke="#E73563" stroke-width="2" stroke-linecap="round" stroke-linejoin="round"/>
<path fill-rule="evenodd" clip-rule="evenodd" d="M46.9167 30.2499H1.08337V4.8145C1.08337 2.75409 2.75421 1.08325 4.81462 1.08325H43.1855C45.2459 1.08325 46.9167 2.75409 46.9167 4.8145V30.2499Z" stroke="#E73563" stroke-width="2" stroke-linecap="round" stroke-linejoin="round"/>
<path fill-rule="evenodd" clip-rule="evenodd" d="M43.1864 38.5833H4.81352C2.7531 38.5833 1.08435 36.9125 1.08435 34.8521V30.25H46.9177V34.8521C46.9177 36.9125 45.2469 38.5833 43.1864 38.5833Z" stroke="#E73563" stroke-width="2" stroke-linecap="round" stroke-linejoin="round"/>
<path fill-rule="evenodd" clip-rule="evenodd" d="M32.3334 46.9166H15.6667L17.7501 38.5833H30.2501L32.3334 46.9166Z" fill="#FEF3F6" stroke="#E73563" stroke-width="2" stroke-linecap="round" stroke-linejoin="round"/>
<path d="M13.5834 46.9165H34.4167" stroke="#E73563" stroke-width="2" stroke-linecap="round" stroke-linejoin="round"/>
</svg>
