<svg width="50" height="50" viewBox="0 0 50 50" fill="none" xmlns="http://www.w3.org/2000/svg">
<path fill-rule="evenodd" clip-rule="evenodd" d="M47.9167 31.2499H2.08337V5.8145C2.08337 3.75409 3.75421 2.08325 5.81462 2.08325H44.1855C46.2459 2.08325 47.9167 3.75409 47.9167 5.8145V31.2499Z" fill="#FEF3F6"/>
<path d="M10.4167 25H39.5834" stroke="#E73563" stroke-width="2" stroke-linecap="round" stroke-linejoin="round"/>
<path fill-rule="evenodd" clip-rule="evenodd" d="M12.5 24.9999H20.8333V14.5833H12.5V24.9999Z" stroke="#E73563" stroke-width="2" stroke-linecap="round" stroke-linejoin="round"/>
<path fill-rule="evenodd" clip-rule="evenodd" d="M20.8334 24.9998H29.1667V16.6665H20.8334V24.9998Z" stroke="#E73563" stroke-width="2" stroke-linecap="round" stroke-linejoin="round"/>
<path fill-rule="evenodd" clip-rule="evenodd" d="M29.1667 24.9999H37.5001V8.33325H29.1667V24.9999Z" stroke="#E73563" stroke-width="2" stroke-linecap="round" stroke-linejoin="round"/>
<path fill-rule="evenodd" clip-rule="evenodd" d="M47.9167 31.2499H2.08337V5.8145C2.08337 3.75409 3.75421 2.08325 5.81462 2.08325H44.1855C46.2459 2.08325 47.9167 3.75409 47.9167 5.8145V31.2499Z" stroke="#E73563" stroke-width="2" stroke-linecap="round" stroke-linejoin="round"/>
<path fill-rule="evenodd" clip-rule="evenodd" d="M44.1864 39.5833H5.81352C3.7531 39.5833 2.08435 37.9125 2.08435 35.8521V31.25H47.9177V35.8521C47.9177 37.9125 46.2469 39.5833 44.1864 39.5833Z" fill="#FEF3F6"/>
<path fill-rule="evenodd" clip-rule="evenodd" d="M44.1864 39.5833H5.81352C3.7531 39.5833 2.08435 37.9125 2.08435 35.8521V31.25H47.9177V35.8521C47.9177 37.9125 46.2469 39.5833 44.1864 39.5833Z" stroke="#E73563" stroke-width="2" stroke-linecap="round" stroke-linejoin="round"/>
<path fill-rule="evenodd" clip-rule="evenodd" d="M33.3334 47.9166H16.6667L18.7501 39.5833H31.2501L33.3334 47.9166Z" fill="#FEF3F6"/>
<path fill-rule="evenodd" clip-rule="evenodd" d="M33.3334 47.9166H16.6667L18.7501 39.5833H31.2501L33.3334 47.9166Z" stroke="#E73563" stroke-width="2" stroke-linecap="round" stroke-linejoin="round"/>
<path d="M14.5834 47.9165H35.4167" stroke="#E73563" stroke-width="2" stroke-linecap="round" stroke-linejoin="round"/>
</svg>
